<svg width="393" height="222" viewBox="0 0 393 222" fill="none" xmlns="http://www.w3.org/2000/svg">
<path d="M0 0H393V202C393 213.046 384.046 222 373 222H20C8.9543 222 0 213.046 0 202V0Z" fill="url(#paint0_linear_53_11811)"/>
<g filter="url(#filter0_d_53_11811)">
<path d="M48.1992 69.832C47.2383 70.3945 46.5938 70.9102 46.2656 71.3789C45.9375 71.8242 45.7734 72.3281 45.7734 72.8906C45.7734 73.2891 45.8906 73.4883 46.125 73.4883C46.1484 73.4883 46.1836 73.4883 46.2305 73.4883C46.3008 73.4648 46.3594 73.4531 46.4062 73.4531C46.5234 73.4062 46.6523 73.3711 46.793 73.3477C46.957 73.3008 47.1094 73.2773 47.25 73.2773C47.7188 73.2773 48.1172 73.4414 48.4453 73.7695C48.7734 74.0742 48.9375 74.4609 48.9375 74.9297C48.9375 75.4922 48.7266 75.9727 48.3047 76.3711C47.9062 76.7461 47.4023 76.9336 46.793 76.9336C46.418 76.9336 46.0664 76.8516 45.7383 76.6875C45.4102 76.5234 45.1172 76.3008 44.8594 76.0195C44.625 75.7383 44.4258 75.4102 44.2617 75.0352C44.1211 74.6367 44.0508 74.2148 44.0508 73.7695C44.0508 72.7148 44.4023 71.7422 45.1055 70.8516C45.832 69.9609 46.8633 69.3281 48.1992 68.9531V69.832ZM42.75 69.832C41.8594 70.2539 41.2266 70.7109 40.8516 71.2031C40.5 71.6719 40.3242 72.1875 40.3242 72.75C40.3242 73.0312 40.3477 73.2305 40.3945 73.3477C40.4648 73.4414 40.5469 73.4883 40.6406 73.4883C40.6875 73.4883 40.8047 73.4648 40.9922 73.418C41.1094 73.3711 41.2266 73.3359 41.3438 73.3125C41.4609 73.2891 41.5898 73.2773 41.7305 73.2773C42.1992 73.2773 42.5977 73.4531 42.9258 73.8047C43.2539 74.1328 43.418 74.5312 43.418 75C43.418 75.5391 43.2188 75.9961 42.8203 76.3711C42.4219 76.7227 41.918 76.8984 41.3086 76.8984C40.5586 76.8984 39.9141 76.6055 39.375 76.0195C38.8359 75.4102 38.5664 74.6602 38.5664 73.7695C38.5664 72.7617 38.918 71.8125 39.6211 70.9219C40.3242 70.0078 41.3672 69.3164 42.75 68.8477V69.832ZM61.9102 74.4727C60.7148 74.6602 59.6133 75.0938 58.6055 75.7734C57.6211 76.4531 56.6836 77.4258 55.793 78.6914C55.5586 79.0898 55.3359 79.4883 55.125 79.8867C54.9141 80.2852 54.7266 80.7188 54.5625 81.1875C54.3984 81.6562 54.2578 82.1836 54.1406 82.7695C54.0469 83.332 54 83.9648 54 84.668C54 85.1836 54.0703 85.7461 54.2109 86.3555C54.375 86.9648 54.5977 87.5742 54.8789 88.1836C55.1602 88.7695 55.5 89.3086 55.8984 89.8008C56.3203 90.293 56.8008 90.6797 57.3398 90.9609C57.2461 90.7734 57.1875 90.5859 57.1641 90.3984C57.1406 90.2109 57.1289 90.0234 57.1289 89.8359C57.1289 89.2969 57.2578 88.8398 57.5156 88.4648C57.7969 88.0898 58.1953 87.8906 58.7109 87.8672C59.0625 87.8672 59.3789 87.9258 59.6602 88.043C59.9648 88.1602 60.2227 88.3242 60.4336 88.5352C60.6445 88.7461 60.8086 88.9922 60.9258 89.2734C61.0664 89.5547 61.1367 89.8359 61.1367 90.1172C61.1367 90.375 61.0781 90.6445 60.9609 90.9258C60.8672 91.1836 60.7031 91.4297 60.4688 91.6641C60.2578 91.8984 59.9648 92.0859 59.5898 92.2266C59.2383 92.3672 58.8047 92.4375 58.2891 92.4375C57.5859 92.4375 56.8711 92.2734 56.1445 91.9453C55.4414 91.5938 54.7969 91.0781 54.2109 90.3984C53.6484 89.6953 53.168 88.8164 52.7695 87.7617C52.3945 86.707 52.1953 85.4531 52.1719 84C52.1484 82.8516 52.2539 81.7734 52.4883 80.7656C52.7461 79.7344 53.0859 78.7969 53.5078 77.9531C53.9531 77.1094 54.4688 76.3477 55.0547 75.668C55.6406 74.9883 56.2734 74.3906 56.9531 73.875C57.2344 73.7109 57.4922 73.5586 57.7266 73.418C57.9609 73.2773 58.2188 73.1719 58.5 73.1016C58.7812 73.0078 59.0977 72.9375 59.4492 72.8906C59.8242 72.8438 60.2695 72.8203 60.7852 72.8203L61.9102 74.4727ZM79.2422 74.5078H76.3242V92.7891L74.4609 91.1016V83.8594C74.4609 83.6719 74.3906 83.4141 74.25 83.0859C74.1328 82.7578 73.9688 82.4414 73.7578 82.1367C73.5469 81.8086 73.3125 81.5273 73.0547 81.293C72.7969 81.0586 72.5391 80.9414 72.2812 80.9414C72.0703 80.9414 71.8359 81.0234 71.5781 81.1875C71.3203 81.3516 71.0391 81.5625 70.7344 81.8203C70.4531 82.0781 70.1484 82.3828 69.8203 82.7344C69.5156 83.0859 69.1992 83.4375 68.8711 83.7891C68.5195 84.1641 68.168 84.5391 67.8164 84.9141C67.4883 85.2656 67.1602 85.582 66.832 85.8633C66.5273 86.1445 66.2344 86.3789 65.9531 86.5664C65.6719 86.7305 65.4141 86.8125 65.1797 86.8125C64.8281 86.8125 64.4531 86.6602 64.0547 86.3555C63.6797 86.0508 63.3281 85.6875 63 85.2656C62.6719 84.8203 62.3906 84.3633 62.1562 83.8945C61.9219 83.4023 61.7812 82.9805 61.7344 82.6289L63.1406 82.5586C63.2812 83.0977 63.4805 83.4609 63.7383 83.6484C63.9961 83.8359 64.1484 83.9297 64.1953 83.9297C64.3594 83.9297 64.6523 83.7539 65.0742 83.4023C65.4961 83.0508 65.918 82.6406 66.3398 82.1719C66.7852 81.7031 67.1719 81.2461 67.5 80.8008C67.8281 80.332 67.9922 79.9805 67.9922 79.7461C67.9922 79.1133 67.8867 78.6094 67.6758 78.2344C67.4883 77.8359 67.2188 77.5195 66.8672 77.2852C66.5391 77.0508 66.1523 76.875 65.707 76.7578C65.2852 76.6172 64.8516 76.4883 64.4062 76.3711C63.9375 76.2773 63.4805 76.1719 63.0352 76.0547C62.6133 75.9141 62.1914 75.7148 61.7695 75.457L61.5234 74.5078H61.0664L59.8711 72.8203H77.9414L79.2422 74.5078ZM74.4609 74.5078H65.707C66.6914 74.9766 67.5 75.5742 68.1328 76.3008C68.7656 77.0273 69.1172 77.8945 69.1875 78.9023L69.4688 78.6914C69.6797 78.4805 69.9023 78.293 70.1367 78.1289C70.3711 77.9414 70.6406 77.8477 70.9453 77.8477C71.25 77.8477 71.5664 77.9531 71.8945 78.1641C72.2227 78.375 72.5391 78.6328 72.8438 78.9375C73.1719 79.2188 73.4766 79.5352 73.7578 79.8867C74.0391 80.2383 74.2734 80.5547 74.4609 80.8359V74.5078ZM87.082 74.5078H83.1445V92.7891L81.3164 91.1016V77.25C81.3164 77.0859 81.2461 76.8633 81.1055 76.582C80.9883 76.3008 80.8359 76.0195 80.6484 75.7383C80.4609 75.457 80.2617 75.1992 80.0508 74.9648C79.8633 74.7305 79.6875 74.5781 79.5234 74.5078H77.9766L76.6406 72.8203H79.8047C80.25 73.1484 80.5781 73.4062 80.7891 73.5938C81.0234 73.7812 81.1992 74.0039 81.3164 74.2617V69.375C81.7852 69.6562 82.1367 70.0898 82.3711 70.6758C82.6289 71.2617 82.8164 71.7891 82.9336 72.2578L83.1094 72.8203H85.7461L87.082 74.5078ZM103.043 74.5078H100.125V92.7891L99.0352 91.8047C99.0352 90.6797 98.8477 89.5781 98.4727 88.5C98.1211 87.4219 97.6406 86.4492 97.0312 85.582C96.4453 84.7148 95.7773 84 95.0273 83.4375C94.3008 82.875 93.5625 82.5469 92.8125 82.4531C92.9766 82.7578 93.082 83.0391 93.1289 83.2969C93.1992 83.5312 93.2344 83.7656 93.2344 84C93.2344 84.3984 93.1406 84.7734 92.9531 85.125C92.7891 85.4531 92.5664 85.7461 92.2852 86.0039C92.0039 86.2383 91.6992 86.4258 91.3711 86.5664C91.043 86.6836 90.7266 86.7422 90.4219 86.7422C89.9531 86.7422 89.5195 86.6602 89.1211 86.4961C88.7461 86.3086 88.418 86.0625 88.1367 85.7578C87.8789 85.4531 87.6797 85.1133 87.5391 84.7383C87.3984 84.3633 87.3281 83.9648 87.3281 83.543C87.3281 82.957 87.4453 82.4414 87.6797 81.9961C87.9141 81.5273 88.2305 81.1406 88.6289 80.8359C89.0273 80.5312 89.4844 80.3086 90 80.168C90.5156 80.0039 91.0664 79.9219 91.6523 79.9219C92.1211 79.9219 92.6367 80.0039 93.1992 80.168C93.7852 80.332 94.3711 80.6016 94.957 80.9766C95.5664 81.3281 96.1523 81.8086 96.7148 82.418C97.3008 83.0039 97.8164 83.7305 98.2617 84.5977V74.5078H86.5898L85.4297 72.8203H101.812L103.043 74.5078ZM111.023 74.5078H107.086V92.7891L105.258 91.1016V77.25C105.258 77.0859 105.188 76.8633 105.047 76.582C104.93 76.3008 104.777 76.0195 104.59 75.7383C104.402 75.457 104.203 75.1992 103.992 74.9648C103.805 74.7305 103.629 74.5781 103.465 74.5078H101.918L100.582 72.8203H103.746C104.191 73.1484 104.52 73.4062 104.73 73.5938C104.965 73.7812 105.141 74.0039 105.258 74.2617V69.375C105.727 69.6562 106.078 70.0898 106.312 70.6758C106.57 71.2617 106.758 71.7891 106.875 72.2578L107.051 72.8203H109.688L111.023 74.5078ZM129.234 74.5078H125.473V92.8594L124.383 91.6641C124.383 91.2891 124.277 90.7617 124.066 90.082C123.855 89.3789 123.562 88.6641 123.188 87.9375C122.812 87.2109 122.367 86.543 121.852 85.9336C121.336 85.3242 120.773 84.9141 120.164 84.7031C120.047 85.125 119.859 85.5117 119.602 85.8633C119.367 86.1914 119.098 86.4844 118.793 86.7422C118.488 86.9766 118.16 87.1641 117.809 87.3047C117.457 87.4453 117.117 87.5156 116.789 87.5156C115.945 87.5156 115.219 87.2344 114.609 86.6719C114 86.1094 113.695 85.4414 113.695 84.668C113.695 84.3633 113.754 84.0234 113.871 83.6484C114.012 83.2734 114.223 82.9336 114.504 82.6289C114.809 82.3008 115.184 82.0312 115.629 81.8203C116.074 81.5859 116.613 81.4688 117.246 81.4688C117.504 81.4688 117.75 81.4805 117.984 81.5039C118.219 81.5273 118.477 81.5742 118.758 81.6445C118.852 81.5742 118.922 81.4453 118.969 81.2578C119.016 81.0703 119.039 80.8594 119.039 80.625C119.039 79.8984 118.84 79.3008 118.441 78.832C118.066 78.3398 117.586 77.9414 117 77.6367C116.414 77.332 115.781 77.0977 115.102 76.9336C114.422 76.7461 113.789 76.5938 113.203 76.4766C112.852 76.4062 112.523 76.3477 112.219 76.3008C111.914 76.2305 111.633 76.1484 111.375 76.0547L110.812 74.5078H110.566L109.406 72.8203H127.934L129.234 74.5078ZM123.645 74.5078H114.645C115.535 74.8594 116.367 75.2578 117.141 75.7031C117.914 76.1484 118.582 76.6523 119.145 77.2148C119.707 77.7773 120.141 78.4102 120.445 79.1133C120.773 79.8164 120.938 80.6016 120.938 81.4688C120.938 81.8438 120.902 82.2773 120.832 82.7695C121.535 83.3086 122.086 83.8477 122.484 84.3867C122.906 84.9023 123.293 85.4414 123.645 86.0039V74.5078ZM148.711 70.9219C147.961 70.4297 147.223 69.9727 146.496 69.5508C145.793 69.1055 145.066 68.7188 144.316 68.3906C143.59 68.0391 142.84 67.7695 142.066 67.582C141.316 67.3945 140.531 67.3008 139.711 67.3008C138.234 67.3008 136.875 67.6172 135.633 68.25C134.414 68.8828 133.277 69.8672 132.223 71.2031L133.312 72.8203H136.688L137.988 74.5078H133.664V92.7891L131.836 91.1016V74.5078H129.023L127.863 72.8203H131.766L129.656 70.1484C130.336 69.2109 131.016 68.4258 131.695 67.793C132.375 67.1367 133.078 66.6094 133.805 66.2109C134.555 65.7891 135.34 65.4961 136.16 65.332C136.98 65.1445 137.859 65.0508 138.797 65.0508C139.734 65.0508 140.602 65.1562 141.398 65.3672C142.219 65.5547 143.016 65.8477 143.789 66.2461C144.562 66.6211 145.336 67.0781 146.109 67.6172C146.906 68.1562 147.773 68.7773 148.711 69.4805V70.9219ZM153.281 74.5078H150.398V92.7891L148.57 91.0664V81.1875C148.219 80.1562 147.785 79.2773 147.27 78.5508C146.777 77.8242 146.262 77.2383 145.723 76.793C145.207 76.3242 144.703 75.9844 144.211 75.7734C143.742 75.5625 143.355 75.457 143.051 75.457C142.465 75.457 141.938 75.5625 141.469 75.7734C141 75.9844 140.602 76.2539 140.273 76.582C139.969 76.9102 139.723 77.2852 139.535 77.707C139.371 78.1055 139.289 78.5039 139.289 78.9023C139.289 79.3008 139.383 79.6641 139.57 79.9922C139.781 80.2969 140.086 80.5078 140.484 80.625C140.578 80.1328 140.859 79.7227 141.328 79.3945C141.82 79.0664 142.371 78.9023 142.98 78.9023C143.59 78.9023 144.152 79.1719 144.668 79.7109C145.207 80.2266 145.477 80.8945 145.477 81.7148C145.477 82.3945 145.23 83.0039 144.738 83.543C144.27 84.082 143.566 84.3516 142.629 84.3516C141.949 84.3516 141.316 84.2109 140.73 83.9297C140.145 83.625 139.641 83.2266 139.219 82.7344C138.797 82.2422 138.469 81.668 138.234 81.0117C138 80.332 137.883 79.6172 137.883 78.8672C137.883 78.0703 138.012 77.3203 138.27 76.6172C138.527 75.8906 138.867 75.2578 139.289 74.7188C139.711 74.1797 140.203 73.7578 140.766 73.4531C141.328 73.125 141.914 72.9609 142.523 72.9609C143.203 72.9609 143.836 73.1133 144.422 73.418C145.008 73.6992 145.547 74.0742 146.039 74.543C146.555 75.0117 147.023 75.5391 147.445 76.125C147.867 76.7109 148.242 77.3086 148.57 77.918V69.4102C149.039 69.6445 149.379 70.0078 149.59 70.5C149.801 70.9922 149.977 71.4844 150.117 71.9766C150.164 72.0938 150.199 72.2344 150.223 72.3984C150.27 72.5625 150.316 72.7031 150.363 72.8203H152.086L153.281 74.5078ZM169.383 74.5078H166.324V92.8594L165.305 91.9102C164.484 89.3086 163.254 87.375 161.613 86.1094C159.973 84.8438 158.086 84.0469 155.953 83.7188L153.949 81.2578L164.461 75.4922V74.5078H152.965L151.805 72.8203H168.012L169.383 74.5078ZM164.461 78.0234C163.336 78.6328 162.27 79.2305 161.262 79.8164C160.254 80.3789 159.176 80.9648 158.027 81.5742C159.504 82.2773 160.734 83.0742 161.719 83.9648C162.727 84.8555 163.641 85.8867 164.461 87.0586V78.0234ZM160.383 89.4844C160.383 90.0234 160.184 90.4805 159.785 90.8555C159.387 91.207 158.918 91.3828 158.379 91.3828C157.793 91.3828 157.312 91.207 156.938 90.8555C156.562 90.4805 156.375 90.0234 156.375 89.4844C156.375 88.9453 156.562 88.5 156.938 88.1484C157.312 87.7734 157.793 87.5859 158.379 87.5859C158.918 87.5859 159.387 87.7734 159.785 88.1484C160.184 88.5 160.383 88.9453 160.383 89.4844ZM64.4062 116.508H61.6289V134.789L59.7656 133.066V123.047C59.7656 122.602 59.625 122.133 59.3438 121.641C59.0859 121.125 58.8164 120.668 58.5352 120.27L51.6094 127.055L49.2188 125.824C50.3438 124.77 51.1406 123.984 51.6094 123.469C52.0781 122.93 52.3125 122.602 52.3125 122.484C52.3125 122.18 52.1719 121.934 51.8906 121.746C51.6328 121.535 51.3281 121.43 50.9766 121.43C50.7891 121.43 50.5664 121.5 50.3086 121.641C50.0742 121.758 49.8281 121.887 49.5703 122.027H49.6055C49.3242 122.215 49.0312 122.379 48.7266 122.52C48.4453 122.66 48.1875 122.73 47.9531 122.73C47.7422 122.73 47.5312 122.695 47.3203 122.625C47.1094 122.555 46.9102 122.449 46.7227 122.309C46.5586 122.145 46.418 121.934 46.3008 121.676C46.1836 121.395 46.125 121.043 46.125 120.621C46.125 119.988 46.3008 119.344 46.6523 118.688C47.0273 118.008 47.5195 117.387 48.1289 116.824C48.7383 116.262 49.4297 115.805 50.2031 115.453C51 115.102 51.832 114.926 52.6992 114.926C54.3633 114.926 55.7578 115.359 56.8828 116.227C58.0078 117.094 58.9688 118.172 59.7656 119.461V111.375C60.0234 111.539 60.2344 111.75 60.3984 112.008C60.5859 112.266 60.75 112.547 60.8906 112.852C61.0312 113.133 61.1484 113.426 61.2422 113.73C61.3359 114.012 61.418 114.27 61.4883 114.504V114.539L61.5938 114.82H63.2109L64.4062 116.508ZM56.707 118.301C55.6523 117.527 54.4688 117.141 53.1562 117.141C52.3594 117.141 51.5859 117.352 50.8359 117.773C50.0859 118.195 49.4297 118.934 48.8672 119.988C49.125 119.871 49.4297 119.766 49.7812 119.672C50.1328 119.555 50.4727 119.496 50.8008 119.496C51.3398 119.496 51.8438 119.66 52.3125 119.988C52.8047 120.316 53.1797 120.809 53.4375 121.465L56.707 118.301ZM72.3516 116.508H68.4141V134.789L66.5859 133.102V119.25C66.5859 119.086 66.5156 118.863 66.375 118.582C66.2578 118.301 66.1055 118.02 65.918 117.738C65.7305 117.457 65.5312 117.199 65.3203 116.965C65.1328 116.73 64.957 116.578 64.793 116.508H63.2461L61.9102 114.82H65.0742C65.5195 115.148 65.8477 115.406 66.0586 115.594C66.293 115.781 66.4688 116.004 66.5859 116.262V111.375C67.0547 111.656 67.4062 112.09 67.6406 112.676C67.8984 113.262 68.0859 113.789 68.2031 114.258L68.3789 114.82H71.0156L72.3516 116.508ZM87.3984 116.508H80.9297C82.2891 117.844 83.2617 119.203 83.8477 120.586C84.457 121.945 84.7617 123.375 84.7617 124.875C84.7617 125.695 84.6211 126.527 84.3398 127.371C84.0586 128.215 83.6484 128.977 83.1094 129.656C82.5938 130.312 81.9492 130.852 81.1758 131.273C80.4023 131.695 79.5352 131.906 78.5742 131.906C77.8242 131.906 77.0859 131.766 76.3594 131.484C75.6562 131.18 75.0352 130.758 74.4961 130.219C73.957 129.656 73.5234 128.988 73.1953 128.215C72.8672 127.441 72.7031 126.562 72.7031 125.578V125.332C72.7031 125.285 72.7031 125.215 72.7031 125.121C72.7266 125.027 72.7383 124.957 72.7383 124.91C73.043 124.863 73.5352 124.723 74.2148 124.488C74.918 124.254 75.6094 123.879 76.2891 123.363C76.9688 122.824 77.5664 122.109 78.082 121.219C78.6211 120.305 78.8906 119.156 78.8906 117.773C78.8906 117.562 78.8789 117.363 78.8555 117.176C78.8555 116.988 78.8438 116.801 78.8203 116.613L78.8555 116.684C78.8789 116.707 78.8789 116.695 78.8555 116.648C78.832 116.602 78.8086 116.555 78.7852 116.508H71.8594L70.6992 114.82H77.9766C77.1562 113.719 76.5352 112.734 76.1133 111.867C75.7148 111 75.4805 110.109 75.4102 109.195C75.4102 108.773 75.4453 108.434 75.5156 108.176C75.5859 107.895 75.7148 107.59 75.9023 107.262L77.8008 108.246C77.6133 108.574 77.4844 108.879 77.4141 109.16C77.3672 109.418 77.332 109.699 77.3086 110.004C77.4492 110.895 77.7188 111.762 78.1172 112.605C78.5391 113.426 79.0195 114.164 79.5586 114.82H86.0625L87.3984 116.508ZM82.8633 124.172C82.8633 123.281 82.6641 122.285 82.2656 121.184C81.8906 120.059 81.293 119.051 80.4727 118.16C80.4961 118.371 80.5078 118.594 80.5078 118.828C80.5312 119.062 80.543 119.297 80.543 119.531C80.543 120.75 80.332 121.875 79.9102 122.906C79.5117 123.938 78.7734 124.898 77.6953 125.789C77.4141 126.047 77.1211 126.258 76.8164 126.422C76.5117 126.586 76.2422 126.727 76.0078 126.844C75.75 126.961 75.5391 127.09 75.375 127.23C75.2344 127.371 75.1641 127.582 75.1641 127.863C75.1641 128.543 75.375 129.094 75.7969 129.516C76.2422 129.914 76.8984 130.113 77.7656 130.113C78.4922 130.113 79.1719 129.973 79.8047 129.691C80.4375 129.41 80.9766 129.012 81.4219 128.496C81.8672 127.98 82.2188 127.359 82.4766 126.633C82.7344 125.906 82.8633 125.086 82.8633 124.172ZM105.855 116.508H102.902V134.789L101.039 133.066V121.605C101.039 121.418 100.922 121.102 100.688 120.656C100.453 120.188 100.148 119.719 99.7734 119.25C99.4219 118.781 99.0234 118.348 98.5781 117.949C98.1328 117.551 97.6875 117.316 97.2422 117.246C96.8203 117.293 96.4688 117.445 96.1875 117.703C95.9062 117.961 95.6484 118.266 95.4141 118.617V118.582C95.3672 118.652 95.3438 118.699 95.3438 118.723C95.3438 118.746 95.3203 118.793 95.2734 118.863C97.5 120.41 98.6133 121.863 98.6133 123.223C98.6133 123.762 98.4141 124.219 98.0156 124.594C97.6172 124.969 97.1484 125.156 96.6094 125.156C95.9766 125.156 95.3906 124.957 94.8516 124.559C94.3125 124.16 93.9258 123.703 93.6914 123.188C93.3164 123.703 92.8594 124.184 92.3203 124.629C91.7812 125.051 91.2305 125.262 90.668 125.262C89.918 125.262 89.3438 125.098 88.9453 124.77C88.5469 124.441 88.3477 123.902 88.3477 123.152C88.3477 122.73 88.4648 122.309 88.6992 121.887C88.9336 121.441 89.2148 121.031 89.543 120.656C89.8711 120.258 90.2227 119.918 90.5977 119.637C90.9961 119.332 91.3594 119.109 91.6875 118.969C91.5 118.289 91.1602 117.715 90.668 117.246C90.1758 116.754 89.5664 116.508 88.8398 116.508H86.9766L85.8164 114.82H89.1562C89.5312 114.82 89.8945 114.914 90.2461 115.102C90.6211 115.266 90.9609 115.488 91.2656 115.77C91.5938 116.051 91.875 116.367 92.1094 116.719C92.3672 117.07 92.5664 117.422 92.707 117.773C93.5039 116.672 94.2188 115.91 94.8516 115.488C95.4844 115.043 96 114.82 96.3984 114.82C96.8906 114.82 97.3594 114.938 97.8047 115.172C98.25 115.383 98.6602 115.664 99.0352 116.016C99.4336 116.367 99.7969 116.754 100.125 117.176C100.453 117.598 100.758 118.008 101.039 118.406V111.375C101.297 111.562 101.52 111.809 101.707 112.113C101.918 112.418 102.094 112.734 102.234 113.062C102.375 113.367 102.492 113.672 102.586 113.977C102.68 114.281 102.75 114.516 102.797 114.68C102.82 114.773 102.832 114.82 102.832 114.82H104.52L105.855 116.508ZM113.66 116.508H109.723V134.789L107.895 133.102V119.25C107.895 119.086 107.824 118.863 107.684 118.582C107.566 118.301 107.414 118.02 107.227 117.738C107.039 117.457 106.84 117.199 106.629 116.965C106.441 116.73 106.266 116.578 106.102 116.508H104.555L103.219 114.82H106.383C106.828 115.148 107.156 115.406 107.367 115.594C107.602 115.781 107.777 116.004 107.895 116.262V111.375C108.363 111.656 108.715 112.09 108.949 112.676C109.207 113.262 109.395 113.789 109.512 114.258L109.688 114.82H112.324L113.66 116.508ZM132.188 116.508H129.234V134.789L127.371 133.102V123.293C127.371 123.129 127.312 122.93 127.195 122.695C127.078 122.461 126.926 122.227 126.738 121.992C126.574 121.758 126.375 121.559 126.141 121.395C125.93 121.23 125.707 121.148 125.473 121.148C125.191 121.148 124.898 121.301 124.594 121.605C124.312 121.91 124.172 122.555 124.172 123.539V124.066C124.172 124.184 124.172 124.359 124.172 124.594C124.195 124.805 124.207 124.992 124.207 125.156L123.082 124.383C122.707 123.117 122.133 122.203 121.359 121.641C120.586 121.055 119.836 120.762 119.109 120.762C118.031 120.762 117.152 121.066 116.473 121.676C115.793 122.262 115.453 123.059 115.453 124.066C115.453 124.488 115.57 124.945 115.805 125.438C116.039 125.93 116.484 126.246 117.141 126.387C117.141 125.543 117.352 124.945 117.773 124.594C118.219 124.242 118.746 124.066 119.355 124.066C120.082 124.066 120.621 124.312 120.973 124.805C121.324 125.297 121.5 125.824 121.5 126.387C121.5 127.066 121.23 127.652 120.691 128.145C120.176 128.613 119.473 128.848 118.582 128.848C117.973 128.848 117.387 128.73 116.824 128.496C116.285 128.238 115.793 127.875 115.348 127.406C114.902 126.938 114.551 126.363 114.293 125.684C114.035 124.98 113.906 124.184 113.906 123.293C113.906 122.543 114.035 121.863 114.293 121.254C114.551 120.621 114.891 120.082 115.312 119.637C115.734 119.191 116.227 118.852 116.789 118.617C117.352 118.359 117.949 118.23 118.582 118.23C119.238 118.23 119.883 118.371 120.516 118.652C121.172 118.934 121.91 119.52 122.73 120.41C122.848 119.73 123.082 119.227 123.434 118.898C123.785 118.57 124.195 118.406 124.664 118.406C125.297 118.406 125.812 118.629 126.211 119.074C126.633 119.52 127.008 119.977 127.336 120.445L127.371 120.516V116.508H113.203L112.043 114.82H130.957L132.188 116.508ZM140.027 116.508H136.09V134.789L134.262 133.102V119.25C134.262 119.086 134.191 118.863 134.051 118.582C133.934 118.301 133.781 118.02 133.594 117.738C133.406 117.457 133.207 117.199 132.996 116.965C132.809 116.73 132.633 116.578 132.469 116.508H130.922L129.586 114.82H132.75C133.195 115.148 133.523 115.406 133.734 115.594C133.969 115.781 134.145 116.004 134.262 116.262V111.375C134.73 111.656 135.082 112.09 135.316 112.676C135.574 113.262 135.762 113.789 135.879 114.258L136.055 114.82H138.691L140.027 116.508ZM141.855 117.738C142.371 117.457 142.781 117.199 143.086 116.965C143.414 116.707 143.672 116.461 143.859 116.227C144.047 115.969 144.176 115.723 144.246 115.488C144.316 115.23 144.352 114.949 144.352 114.645C144.352 114.41 144.305 114.246 144.211 114.152C144.141 114.059 144.059 114.012 143.965 114.012C143.871 114.012 143.766 114.023 143.648 114.047C143.531 114.094 143.402 114.141 143.262 114.188C143.145 114.211 143.016 114.223 142.875 114.223C142.406 114.223 142.008 114.07 141.68 113.766C141.352 113.438 141.188 113.039 141.188 112.57C141.188 112.031 141.387 111.562 141.785 111.164C142.184 110.766 142.688 110.566 143.297 110.566C143.648 110.566 143.988 110.648 144.316 110.812C144.645 110.977 144.938 111.199 145.195 111.48C145.453 111.762 145.664 112.102 145.828 112.5C145.992 112.875 146.074 113.285 146.074 113.73C146.074 114.809 145.711 115.805 144.984 116.719C144.258 117.609 143.215 118.254 141.855 118.652V117.738ZM147.375 117.738C148.242 117.27 148.863 116.801 149.238 116.332C149.613 115.863 149.801 115.336 149.801 114.75C149.801 114.469 149.754 114.281 149.66 114.188C149.59 114.07 149.531 114.012 149.484 114.012C149.438 114.012 149.379 114.012 149.309 114.012C149.238 114.012 149.145 114.035 149.027 114.082C148.793 114.176 148.582 114.223 148.395 114.223C147.926 114.223 147.527 114.059 147.199 113.73C146.871 113.402 146.707 113.004 146.707 112.535C146.707 111.996 146.895 111.539 147.27 111.164C147.668 110.766 148.172 110.566 148.781 110.566C149.156 110.566 149.508 110.648 149.836 110.812C150.164 110.977 150.457 111.211 150.715 111.516C150.973 111.797 151.172 112.137 151.312 112.535C151.477 112.91 151.559 113.32 151.559 113.766C151.559 114.773 151.195 115.734 150.469 116.648C149.766 117.539 148.734 118.207 147.375 118.652V117.738Z" fill="white"/>
</g>
<g clip-path="url(#clip0_53_11811)">
<path d="M282.512 197.335C281.69 197.335 280.86 197.322 280.046 197.296L280.064 196.706C281.234 196.743 282.427 196.753 283.603 196.737L283.611 197.327C283.245 197.332 282.879 197.335 282.512 197.335ZM287.174 197.198L287.139 196.608C288.311 196.539 289.497 196.443 290.666 196.321L290.728 196.908C289.55 197.031 288.355 197.129 287.174 197.198ZM276.486 197.106C275.304 197.016 274.111 196.897 272.937 196.754L273.01 196.168C274.174 196.31 275.358 196.428 276.531 196.517L276.486 197.106ZM294.264 196.456L294.175 195.873C295.339 195.696 296.512 195.492 297.66 195.264L297.776 195.844C296.619 196.073 295.437 196.279 294.264 196.456ZM269.41 196.24C268.243 196.043 267.065 195.816 265.909 195.566L266.034 194.989C267.181 195.237 268.35 195.462 269.508 195.658L269.41 196.24ZM301.256 195.07L301.114 194.497C302.257 194.215 303.405 193.904 304.529 193.572L304.697 194.138C303.565 194.473 302.408 194.787 301.256 195.07ZM262.443 194.732C261.298 194.428 260.146 194.094 259.019 193.739L259.197 193.176C260.316 193.528 261.459 193.86 262.595 194.161L262.443 194.732ZM308.091 193.048L307.897 192.49C309.006 192.106 310.121 191.69 311.212 191.255L311.432 191.803C310.332 192.242 309.209 192.661 308.091 193.048ZM255.636 192.586C254.524 192.178 253.405 191.738 252.311 191.279L252.541 190.734C253.627 191.19 254.737 191.627 255.84 192.031L255.636 192.586ZM314.703 190.41L314.458 189.872C315.523 189.39 316.593 188.875 317.639 188.341L317.909 188.867C316.854 189.405 315.776 189.923 314.703 190.41ZM249.051 189.821C247.983 189.313 246.91 188.773 245.863 188.215L246.142 187.694C247.181 188.248 248.246 188.784 249.306 189.288L249.051 189.821ZM321.04 187.179L320.746 186.667C321.768 186.086 322.787 185.475 323.776 184.851L324.092 185.35C323.096 185.979 322.069 186.594 321.04 187.179ZM242.754 186.465C241.737 185.862 240.719 185.226 239.729 184.576L240.054 184.082C241.038 184.728 242.048 185.359 243.057 185.958L242.754 186.465ZM327.058 183.382L326.719 182.899C327.68 182.229 328.64 181.527 329.571 180.813L329.932 181.282C328.994 182.001 328.027 182.708 327.058 183.382ZM236.794 182.551C235.838 181.858 234.883 181.133 233.956 180.394L234.325 179.933C235.246 180.666 236.193 181.386 237.142 182.073L236.794 182.551ZM332.707 179.053L332.325 178.601C333.221 177.847 334.113 177.061 334.976 176.265L335.378 176.699C334.509 177.501 333.61 178.293 332.707 179.053ZM231.22 178.112C230.329 177.334 229.445 176.526 228.591 175.708L229.001 175.282C229.849 176.093 230.726 176.896 231.61 177.668L231.22 178.112ZM337.94 174.225L337.518 173.81C338.345 172.976 339.162 172.111 339.947 171.243L340.387 171.638C339.596 172.514 338.773 173.384 337.94 174.225ZM226.075 173.188C225.259 172.332 224.452 171.446 223.678 170.557L224.125 170.17C224.893 171.053 225.694 171.931 226.505 172.781L226.075 173.188ZM342.713 168.941L342.256 168.567C343.002 167.661 343.737 166.726 344.441 165.788L344.915 166.141C344.206 167.087 343.466 168.029 342.713 168.941ZM221.403 167.82C220.67 166.896 219.948 165.942 219.257 164.984L219.737 164.639C220.423 165.589 221.14 166.536 221.868 167.454L221.403 167.82ZM346.986 163.244L346.496 162.912C347.157 161.942 347.803 160.944 348.419 159.945L348.923 160.254C348.303 161.261 347.651 162.267 346.986 163.244ZM217.243 162.054C216.597 161.067 215.966 160.052 215.365 159.036L215.875 158.736C216.471 159.744 217.098 160.752 217.739 161.731L217.243 162.054ZM350.722 157.178L350.203 156.892C350.772 155.866 351.324 154.813 351.846 153.76L352.376 154.022C351.851 155.082 351.294 156.144 350.722 157.178ZM213.629 155.936C213.076 154.895 212.541 153.827 212.037 152.762L212.572 152.509C213.073 153.567 213.604 154.627 214.152 155.66L213.629 155.936ZM353.884 150.793L353.342 150.556C353.814 149.481 354.267 148.38 354.689 147.284L355.242 147.496C354.817 148.601 354.36 149.71 353.884 150.793ZM210.593 149.519C210.139 148.432 209.704 147.32 209.301 146.214L209.858 146.012C210.258 147.11 210.689 148.213 211.14 149.291L210.593 149.519ZM356.445 144.139L355.883 143.953C356.253 142.843 356.601 141.708 356.919 140.579L357.49 140.739C357.169 141.876 356.817 143.02 356.445 144.139ZM208.16 142.845C207.808 141.719 207.477 140.569 207.176 139.427L207.749 139.277C208.047 140.411 208.376 141.552 208.725 142.669L208.16 142.845ZM358.375 137.294L357.799 137.161C358.064 136.022 358.306 134.86 358.519 133.706L359.102 133.813C358.887 134.976 358.643 136.147 358.375 137.294ZM206.351 135.967C206.104 134.814 205.881 133.639 205.687 132.474L206.271 132.377C206.464 133.533 206.685 134.699 206.931 135.844L206.351 135.967ZM359.666 130.302L359.079 130.222C359.238 129.065 359.373 127.886 359.479 126.716L360.069 126.769C359.962 127.948 359.826 129.136 359.666 130.302ZM205.184 128.954C205.045 127.784 204.93 126.594 204.843 125.414L205.434 125.371C205.52 126.542 205.634 127.723 205.772 128.884L205.184 128.954ZM360.31 123.222L359.718 123.195C359.771 122.025 359.798 120.838 359.798 119.667H360.39C360.39 120.847 360.363 122.043 360.31 123.222ZM204.664 121.863C204.644 121.139 204.633 120.4 204.633 119.667C204.633 119.213 204.637 118.759 204.645 118.306L205.237 118.317C205.229 118.766 205.225 119.216 205.225 119.667C205.226 120.394 205.236 121.128 205.256 121.847L204.664 121.863ZM359.794 118.843C359.781 117.672 359.742 116.486 359.677 115.316L360.268 115.283C360.334 116.462 360.373 117.657 360.386 118.837L359.794 118.843ZM205.378 114.791L204.787 114.754C204.861 113.574 204.963 112.382 205.09 111.211L205.678 111.275C205.552 112.437 205.451 113.62 205.378 114.791ZM359.4 111.798C359.282 110.634 359.135 109.455 358.963 108.296L359.549 108.21C359.722 109.378 359.87 110.565 359.989 111.738L359.4 111.798ZM206.14 107.776L205.554 107.686C205.736 106.518 205.947 105.34 206.181 104.185L206.761 104.302C206.529 105.448 206.32 106.617 206.14 107.776ZM358.365 104.819C358.139 103.666 357.884 102.507 357.607 101.372L358.183 101.232C358.462 102.376 358.719 103.544 358.946 104.705L358.365 104.819ZM207.542 100.861L206.968 100.717C207.255 99.5734 207.574 98.42 207.915 97.2889L208.482 97.4588C208.144 98.5812 207.828 99.7258 207.542 100.861ZM356.691 97.9629C356.361 96.8383 356 95.7071 355.619 94.6002L356.179 94.4082C356.563 95.5235 356.927 96.6637 357.26 97.7968L356.691 97.9629ZM209.581 94.0943L209.022 93.8984C209.416 92.7819 209.841 91.6601 210.285 90.564L210.834 90.7855C210.393 91.8731 209.972 92.9864 209.581 94.0943ZM354.392 91.2904C353.959 90.2034 353.497 89.1126 353.016 88.048L353.556 87.8055C354.041 88.8783 354.507 89.9775 354.942 91.0726L354.392 91.2904ZM212.239 87.5391L211.701 87.2925C212.196 86.2183 212.722 85.141 213.266 84.0907L213.792 84.3615C213.252 85.4039 212.73 86.4729 212.239 87.5391ZM351.493 84.8708C350.963 83.8281 350.401 82.7832 349.824 81.7656L350.339 81.4747C350.921 82.5002 351.487 83.5529 352.021 84.6037L351.493 84.8708ZM215.49 81.2592L214.976 80.9645C215.567 79.9414 216.19 78.9173 216.828 77.921L217.327 78.2388C216.694 79.2277 216.076 80.244 215.49 81.2592ZM348.014 78.7387C347.388 77.7452 346.733 76.7554 346.066 75.7968L346.552 75.4603C347.224 76.4262 347.885 77.4235 348.515 78.4246L348.014 78.7387ZM219.301 75.3061L218.817 74.9658C219.5 74.0001 220.214 73.0376 220.94 72.1049L221.407 72.4669C220.688 73.3926 219.979 74.3478 219.301 75.3061ZM343.985 72.9459C343.272 72.0137 342.528 71.0869 341.776 70.1915L342.23 69.8121C342.988 70.7145 343.737 71.6481 344.456 72.5874L343.985 72.9459ZM223.641 69.7273L223.19 69.3443C223.956 68.4468 224.754 67.5535 225.563 66.6892L225.996 67.0921C225.194 67.9499 224.401 68.8366 223.641 69.7273ZM339.443 67.5396C338.647 66.676 337.822 65.82 336.99 64.9958L337.408 64.5767C338.246 65.4075 339.077 66.2698 339.879 67.1398L339.443 67.5396ZM228.469 64.5675L228.055 64.1453C228.901 63.3191 229.778 62.5022 230.659 61.7175L231.053 62.1582C230.179 62.9368 229.309 63.7475 228.469 64.5675ZM334.424 62.5654C333.552 61.7768 332.652 60.999 331.749 60.2536L332.126 59.7985C333.036 60.5495 333.944 61.3332 334.822 62.1279L334.424 62.5654ZM233.745 59.8686L233.371 59.4106C234.287 58.6667 235.234 57.9331 236.185 57.23L236.538 57.7044C235.594 58.4023 234.654 59.1303 233.745 59.8686ZM328.97 58.0652C328.03 57.3587 327.062 56.6656 326.094 56.005L326.428 55.5176C327.404 56.1831 328.379 56.8814 329.327 57.5933L328.97 58.0652ZM239.425 55.6701L239.095 55.1801C240.075 54.5223 241.084 53.8781 242.094 53.2652L242.402 53.7698C241.4 54.378 240.398 55.0174 239.425 55.6701ZM323.125 54.078C322.124 53.4603 321.096 52.8581 320.07 52.288L320.358 51.772C321.393 52.3465 322.428 52.9534 323.437 53.5756L323.125 54.078ZM245.462 52.0078L245.178 51.4895C246.215 50.9236 247.279 50.3745 248.339 49.8572L248.599 50.3879C247.547 50.9011 246.492 51.446 245.462 52.0078ZM316.936 50.6394C315.882 50.1158 314.802 49.6099 313.727 49.136L313.967 48.5958C315.05 49.0734 316.138 49.5831 317.2 50.1107L316.936 50.6394ZM251.806 48.9135L251.57 48.3716C252.654 47.9031 253.763 47.4538 254.865 47.036L255.076 47.5883C253.981 48.0027 252.881 48.4486 251.806 48.9135ZM310.452 47.7811C309.355 47.357 308.233 46.9524 307.116 46.5787L307.304 46.0186C308.43 46.3954 309.561 46.803 310.666 47.2306L310.452 47.7811ZM258.411 46.4118L258.227 45.8506C259.352 45.4826 260.501 45.1361 261.64 44.821L261.798 45.39C260.668 45.7028 259.528 46.0466 258.411 46.4118ZM303.736 45.5337C302.606 45.2125 301.454 44.9135 300.312 44.6448L300.448 44.0701C301.599 44.3407 302.76 44.6421 303.899 44.9655L303.736 45.5337ZM265.229 44.525L265.097 43.9492C266.251 43.6864 267.426 43.4469 268.59 43.2375L268.695 43.8186C267.54 44.0265 266.374 44.2642 265.229 44.525ZM296.85 43.9146C295.697 43.6988 294.522 43.5067 293.359 43.3438L293.441 42.7589C294.613 42.9231 295.797 43.1166 296.959 43.3341L296.85 43.9146ZM272.191 43.272L272.113 42.6865C273.285 42.5305 274.477 42.3993 275.656 42.2969L275.708 42.8852C274.538 42.987 273.355 43.1171 272.191 43.272ZM289.844 42.9331C288.678 42.8235 287.49 42.739 286.315 42.6823L286.344 42.0923C287.528 42.1495 288.724 42.2346 289.9 42.3451L289.844 42.9331ZM279.239 42.6587L279.214 42.0686C280.303 42.0234 281.412 42.0003 282.512 42L282.78 42.0004L282.778 42.5911L282.512 42.5906C281.42 42.5909 280.319 42.6138 279.239 42.6587Z" fill="white"/>
<path d="M282.698 196.932V164.635C282.698 164.183 282.879 163.749 283.2 163.429C283.52 163.109 283.955 162.929 284.409 162.929H288.295C288.748 162.929 289.183 163.109 289.504 163.429C289.825 163.749 290.005 164.183 290.006 164.635V196.932C290.005 197.384 289.825 197.818 289.504 198.138C289.183 198.458 288.748 198.638 288.295 198.638H284.409C283.955 198.638 283.52 198.458 283.2 198.138C282.879 197.818 282.698 197.384 282.698 196.932Z" fill="#2F2E41"/>
<path d="M275.013 196.932V164.635C275.013 164.183 275.194 163.749 275.515 163.429C275.835 163.109 276.27 162.929 276.724 162.929H280.61C281.063 162.929 281.498 163.109 281.819 163.429C282.14 163.749 282.32 164.183 282.321 164.635V196.932C282.32 197.384 282.14 197.818 281.819 198.138C281.498 198.458 281.063 198.638 280.61 198.638H276.724C276.27 198.638 275.835 198.458 275.515 198.138C275.194 197.818 275.013 197.384 275.013 196.932Z" fill="#2F2E41"/>
<path d="M290.375 153.973H274.643C273.771 153.973 273.064 154.678 273.064 155.548V173.271C273.064 174.141 273.771 174.846 274.643 174.846H290.375C291.248 174.846 291.955 174.141 291.955 173.271V155.548C291.955 154.678 291.248 153.973 290.375 153.973Z" fill="#2F2E41"/>
<path d="M256.061 103.231C256.061 103.231 248.122 106.91 241.403 109.349C237.234 99.963 231.228 100.314 231.228 100.314L227.586 102.815L228.243 106.565L228.064 112.697L227.109 115.912L228.479 116.159L229.254 116.299L229.37 116.194C229.177 116.958 229.099 117.745 229.138 118.532L263.583 113.174C263.583 113.174 262.389 107.637 256.061 103.231Z" fill="white"/>
<path d="M245.89 151.508L248.2 154.624C248.718 155.324 249.707 155.472 250.409 154.955L276.452 135.759C277.154 135.242 277.302 134.256 276.784 133.556L274.474 130.44C273.956 129.74 272.967 129.592 272.265 130.109L246.222 149.305C245.52 149.822 245.372 150.808 245.89 151.508Z" fill="white"/>
<path d="M290.267 129.381L286.835 131.198C286.064 131.605 285.771 132.559 286.18 133.327L301.361 161.856C301.77 162.624 302.726 162.916 303.496 162.509L306.929 160.692C307.699 160.284 307.992 159.331 307.583 158.562L292.403 130.034C291.994 129.266 291.038 128.973 290.267 129.381Z" fill="white"/>
<path d="M299.889 142.042L294.284 145.748C293.427 146.202 292.401 145.946 291.992 145.178L285.802 133.544C285.393 132.776 285.756 131.785 286.612 131.332L290.427 129.312C291.284 128.859 292.31 129.115 292.719 129.883L300.699 139.83C301.108 140.598 300.746 141.589 299.889 142.042Z" fill="white"/>
<path d="M261.691 138.634L265.334 143.46C265.621 143.764 266.017 143.943 266.436 143.956C266.854 143.969 267.261 143.816 267.567 143.53L277.195 134.517C277.501 134.231 277.68 133.836 277.693 133.418C277.706 133.001 277.553 132.595 277.266 132.29L274.607 129.465C274.32 129.16 273.924 128.982 273.505 128.968C273.087 128.955 272.68 129.108 272.374 129.394L261.761 136.408C261.456 136.694 261.277 137.089 261.263 137.506C261.25 137.924 261.404 138.33 261.691 138.634Z" fill="white"/>
<path d="M291.337 128.917H273.682C272.81 128.917 272.103 129.622 272.103 130.492V167.898C272.103 168.768 272.81 169.473 273.682 169.473H291.337C292.209 169.473 292.916 168.768 292.916 167.898V130.492C292.916 129.622 292.209 128.917 291.337 128.917Z" fill="white"/>
<path d="M282.406 126.476C290.187 126.476 296.495 120.185 296.495 112.425C296.495 104.665 290.187 98.3738 282.406 98.3738C274.625 98.3738 268.317 104.665 268.317 112.425C268.317 120.185 274.625 126.476 282.406 126.476Z" fill="white"/>
<path d="M284.048 117.116C283.178 117.092 282.094 117.062 281.261 116.454C281.012 116.266 280.808 116.025 280.662 115.75C280.517 115.474 280.434 115.17 280.418 114.859C280.403 114.639 280.44 114.417 280.524 114.213C280.609 114.008 280.741 113.826 280.908 113.68C281.343 113.313 281.98 113.226 282.666 113.428L281.955 108.249L282.477 108.177L283.312 114.266L282.877 114.067C282.372 113.835 281.679 113.718 281.248 114.081C281.142 114.176 281.06 114.294 281.007 114.426C280.954 114.557 280.933 114.7 280.944 114.841C280.957 115.072 281.02 115.298 281.128 115.504C281.236 115.709 281.387 115.888 281.571 116.03C282.22 116.503 283.084 116.564 284.063 116.591L284.048 117.116Z" fill="#2F2E41"/>
<path d="M279.376 108.695H276.54V109.22H279.376V108.695Z" fill="#2F2E41"/>
<path d="M288.326 108.695H285.491V109.22H288.326V108.695Z" fill="#2F2E41"/>
<path d="M273.099 101.445C270.815 101.185 269.047 99.0029 268.852 96.7889C268.621 94.1551 270.159 91.6535 272.269 90.1755C274.476 88.6299 277.225 87.9844 279.885 87.8423C285.074 87.5848 290.174 89.2611 294.193 92.5454C296.186 94.1964 298.047 96.2994 298.753 98.8397C299.366 101.046 298.867 103.545 297.088 105.09C296.648 105.469 296.134 105.752 295.578 105.923C295.023 106.093 294.438 106.147 293.86 106.081C292.48 105.938 291.206 105.214 290.104 104.415C287.959 102.86 286.198 100.693 283.585 99.8805C281.669 99.2846 279.183 99.8091 278.012 101.537C277.747 101.933 277.575 102.383 277.509 102.855C277.485 102.955 277.5 103.061 277.551 103.151C277.602 103.241 277.686 103.308 277.785 103.339C277.886 103.366 277.993 103.352 278.084 103.301C278.175 103.25 278.242 103.164 278.27 103.064C278.578 100.888 281.261 100.076 283.144 100.573C285.889 101.297 287.732 103.74 289.985 105.293C291.169 106.109 292.516 106.761 293.968 106.878C295.221 106.976 296.463 106.596 297.444 105.814C299.369 104.298 300.104 101.692 299.679 99.3452C299.186 96.6278 297.352 94.2988 295.34 92.4957C291.261 88.8789 285.965 86.9277 280.507 87.0311C277.724 87.0948 274.819 87.6679 272.421 89.1351C270.095 90.5583 268.297 92.9394 268.062 95.7071C267.856 98.1432 269.166 100.691 271.416 101.758C271.946 102.009 272.515 102.169 273.099 102.232C273.603 102.29 273.599 101.501 273.099 101.445Z" fill="#2F2E41"/>
<path d="M229.228 115.823L230.899 115.287C231.079 114.945 230.751 115.165 230.907 114.832C235.136 105.834 231.228 100.314 231.228 100.314L228.204 102.39C228.197 102.373 228.191 102.356 228.183 102.338C228.183 102.338 227.646 101.148 226.81 102.041C226.81 102.041 229.437 108.411 226.512 116.329L229.914 117.877L231.228 116.329L231.258 116.18L228.907 115.967L229.228 115.823Z" fill="white"/>
<path d="M276.895 149.252C263.464 146.275 250.957 152.437 250.957 152.437L250.923 152.406L245.943 147.972L226.482 116.299L231.228 116.329C244.421 108.471 262.986 109.542 262.986 109.542C270.985 118.591 276.895 149.252 276.895 149.252Z" fill="#3F3D56"/>
<path opacity="0.1" d="M250.923 152.406L245.943 147.972L226.482 116.299L231.228 116.329C231.228 116.329 250.143 141.244 250.923 152.406Z" fill="black"/>
<path d="M253.109 127.694C257.175 126.45 259.829 123.352 259.036 120.775C258.243 118.197 254.304 117.116 250.238 118.359C246.172 119.603 243.519 122.701 244.311 125.279C245.104 127.856 249.043 128.938 253.109 127.694Z" fill="white"/>
<path d="M211.535 100.943C210.463 104.896 206.789 107.345 206.789 107.345C206.789 107.345 204.855 103.383 205.927 99.4297C207 95.476 210.673 93.0274 210.673 93.0274C210.673 93.0274 212.608 96.989 211.535 100.943Z" fill="white"/>
<path d="M201.779 100.943C202.851 104.896 206.525 107.345 206.525 107.345C206.525 107.345 208.459 103.383 207.387 99.4297C206.314 95.476 202.641 93.0274 202.641 93.0274C202.641 93.0274 200.706 96.989 201.779 100.943Z" fill="white"/>
<path d="M203.355 100.093C206.297 102.95 206.657 107.342 206.657 107.342C206.657 107.342 202.245 107.102 199.302 104.245C196.359 101.388 196 96.9958 196 96.9958C196 96.9958 200.412 97.236 203.355 100.093Z" fill="#3F3D56"/>
<path d="M209.959 100.093C207.016 102.95 206.657 107.342 206.657 107.342C206.657 107.342 211.069 107.102 214.012 104.245C216.954 101.388 217.314 96.9958 217.314 96.9958C217.314 96.9958 212.902 97.236 209.959 100.093Z" fill="#3F3D56"/>
<path d="M359.221 145.575C358.149 149.529 354.475 151.977 354.475 151.977C354.475 151.977 352.541 148.016 353.613 144.062C354.686 140.108 358.359 137.66 358.359 137.66C358.359 137.66 360.294 141.621 359.221 145.575Z" fill="white"/>
<path d="M349.465 145.575C350.537 149.529 354.211 151.977 354.211 151.977C354.211 151.977 356.145 148.016 355.073 144.062C354 140.108 350.327 137.66 350.327 137.66C350.327 137.66 348.392 141.621 349.465 145.575Z" fill="white"/>
<path d="M351.041 144.725C353.984 147.582 354.343 151.974 354.343 151.974C354.343 151.974 349.931 151.734 346.988 148.877C344.046 146.02 343.686 141.628 343.686 141.628C343.686 141.628 348.098 141.868 351.041 144.725Z" fill="#3F3D56"/>
<path d="M357.645 144.725C354.703 147.582 354.343 151.974 354.343 151.974C354.343 151.974 358.755 151.734 361.698 148.877C364.641 146.02 365 141.628 365 141.628C365 141.628 360.588 141.868 357.645 144.725Z" fill="#3F3D56"/>
<path d="M313.402 198.475H252.327V199H313.402V198.475Z" fill="#3F3D56"/>
</g>
<path d="M32 144H56V162C56 168.627 50.6274 174 44 174V174C37.3726 174 32 168.627 32 162V144Z" fill="white" fill-opacity="0.12"/>
<path d="M44 154H68V172C68 178.627 62.6274 184 56 184V184C49.3726 184 44 178.627 44 172V154Z" fill="white" fill-opacity="0.12"/>
<path d="M326 50H350V68C350 74.6274 344.627 80 338 80V80C331.373 80 326 74.6274 326 68V50Z" fill="white" fill-opacity="0.12"/>
<path d="M338 60H362V78C362 84.6274 356.627 90 350 90V90C343.373 90 338 84.6274 338 78V60Z" fill="white" fill-opacity="0.12"/>
<defs>
<filter id="filter0_d_53_11811" x="34.5664" y="65.0508" width="138.816" height="77.7383" filterUnits="userSpaceOnUse" color-interpolation-filters="sRGB">
<feFlood flood-opacity="0" result="BackgroundImageFix"/>
<feColorMatrix in="SourceAlpha" type="matrix" values="0 0 0 0 0 0 0 0 0 0 0 0 0 0 0 0 0 0 127 0" result="hardAlpha"/>
<feOffset dy="4"/>
<feGaussianBlur stdDeviation="2"/>
<feComposite in2="hardAlpha" operator="out"/>
<feColorMatrix type="matrix" values="0 0 0 0 0 0 0 0 0 0 0 0 0 0 0 0 0 0 0.25 0"/>
<feBlend mode="normal" in2="BackgroundImageFix" result="effect1_dropShadow_53_11811"/>
<feBlend mode="normal" in="SourceGraphic" in2="effect1_dropShadow_53_11811" result="shape"/>
</filter>
<linearGradient id="paint0_linear_53_11811" x1="196.5" y1="0" x2="196.5" y2="222" gradientUnits="userSpaceOnUse">
<stop stop-color="#643A8D"/>
<stop offset="1" stop-color="#8318B5" stop-opacity="0.84"/>
</linearGradient>
<clipPath id="clip0_53_11811">
<path d="M196 42H365V179C365 190.046 356.046 199 345 199H216C204.954 199 196 190.046 196 179V42Z" fill="white"/>
</clipPath>
</defs>
</svg>
